{
	"asset":{
		"generator":"Khronos glTF Blender I/O v3.6.28",
		"version":"2.0"
	},
	"scene":0,
	"scenes":[
		{
			"name":"Scene",
			"nodes":[
				1
			]
		}
	],
	"nodes":[
		{
			"mesh":0,
			"name":"tripo_node_b7e3e46b-6c7c-4a26-a182-ac2b9f9ac7b2"
		},
		{
			"children":[
				0
			],
			"name":"Node_1"
		}
	],
	"materials":[
		{
			"name":"tripo_material_b7e3e46b-6c7c-4a26-a182-ac2b9f9ac7b2",
			"pbrMetallicRoughness":{
				"baseColorTexture":{
					"index":0
				},
				"metallicFactor":0,
				"roughnessFactor":0.8999999761581421
			}
		}
	],
	"meshes":[
		{
			"name":"Mesh_0",
			"primitives":[
				{
					"attributes":{
						"POSITION":0,
						"NORMAL":1,
						"TEXCOORD_0":2
					},
					"indices":3,
					"material":0
				}
			]
		}
	],
	"textures":[
		{
			"sampler":0,
			"source":0
		}
	],
	"images":[
		{
			"mimeType":"image/jpeg",
			"name":"Image_0",
			"uri":"Image_0.jpg"
		}
	],
	"accessors":[
		{
			"bufferView":0,
			"componentType":5126,
			"count":134156,
			"max":[
				0.24695348739624023,
				0.4737918972969055,
				0.33690476417541504
			],
			"min":[
				-0.24806787073612213,
				-0.47637316584587097,
				-0.3394489288330078
			],
			"type":"VEC3"
		},
		{
			"bufferView":1,
			"componentType":5126,
			"count":134156,
			"type":"VEC3"
		},
		{
			"bufferView":2,
			"componentType":5126,
			"count":134156,
			"type":"VEC2"
		},
		{
			"bufferView":3,
			"componentType":5125,
			"count":758538,
			"type":"SCALAR"
		}
	],
	"bufferViews":[
		{
			"buffer":0,
			"byteLength":1609872,
			"byteOffset":0,
			"target":34962
		},
		{
			"buffer":0,
			"byteLength":1609872,
			"byteOffset":1609872,
			"target":34962
		},
		{
			"buffer":0,
			"byteLength":1073248,
			"byteOffset":3219744,
			"target":34962
		},
		{
			"buffer":0,
			"byteLength":3034152,
			"byteOffset":4292992,
			"target":34963
		}
	],
	"samplers":[
		{
			"magFilter":9729,
			"minFilter":9987
		}
	],
	"buffers":[
		{
			"byteLength":7327144,
			"uri":"napalm_low.bin"
		}
	]
}
